# xmcd CD database file
# Copyright (C) 1993-1998 Ti Kan
#
# Track frame offsets:
#	150
#	16783
#	33253
#	49008
#	67963
#	84988
#	97233
#	110420
#	124920
#
# Disc length: 1910 seconds
#
# Revision: 1
# Processed by: cddbd v1.4b41PL1 Copyright (c) Steve Scherf et al.
# Submitted via: CDValet v3.31 - Copyright (c) 1997 Greg Leichner
#
DISCID=6b077409
DTITLE=Hits of '87 - Various Artists
DYEAR=1900
DGENRE=
TTITLE0=Cry Myself To Sleep/ The Judds
TTITLE1=Give Me Wings/ Michael Johnson
TTITLE2=That Rock Won't Roll/ Restless Heart
TTITLE3=How Do I Turn You On/ Ronnie Milsap
TTITLE4=Wall Of Tears/ K.T. Oslin
TTITLE5=You're Never Too Old For Young Love/ Eddy Raven
TTITLE6=Hard Livin'/Keith Whitley
TTITLE7=The Bed You Made For Me/ Paulette Carlson
TTITLE8=I Can't Win For Losin' You/ Earl Thomasd Conley
EXTD=
EXTT0=
EXTT1=
EXTT2=
EXTT3=
EXTT4=
EXTT5=
EXTT6=
EXTT7=
EXTT8=
PLAYORDER=
